<svg width="24" height="24" viewBox="0 0 24 24" fill="none" xmlns="http://www.w3.org/2000/svg">
<path d="M8.37177 15.4995V8.08554H9.72477V15.4995H8.37177Z" fill="#F8F663"/>
<path d="M12.2056 15.4995H10.8416V11.7375C10.8416 11.1215 10.8306 10.6045 10.7976 10.1425H11.9856L12.0516 10.9455H12.0846C12.3156 10.5275 12.8986 10.0215 13.7896 10.0215C14.7246 10.0215 15.6926 10.6265 15.6926 12.3205V15.4995H14.3396V12.4745C14.3396 11.7045 14.0536 11.1215 13.3166 11.1215C12.7776 11.1215 12.4036 11.5065 12.2606 11.9135C12.2166 12.0345 12.2056 12.1995 12.2056 12.3535V15.4995Z" fill="#F8F663"/>
<path fill-rule="evenodd" clip-rule="evenodd" d="M17.2589 2.83257C13.7924 2.44513 10.209 2.44513 6.74244 2.83257C4.73038 3.05745 3.10605 4.64246 2.8695 6.66499C2.45496 10.2093 2.45496 13.7898 2.8695 17.3341C3.10605 19.3567 4.73038 20.9417 6.74244 21.1665C10.209 21.554 13.7924 21.554 17.2589 21.1665C19.271 20.9417 20.8953 19.3567 21.1319 17.3341C21.5464 13.7898 21.5464 10.2093 21.1319 6.66499C20.8953 4.64246 19.271 3.05745 17.2589 2.83257ZM6.90905 4.32329C10.2649 3.94823 13.7365 3.94823 17.0923 4.32329C18.4224 4.47195 19.4879 5.52156 19.642 6.83924C20.043 10.2678 20.043 13.7313 19.642 17.1599C19.4879 18.4775 18.4224 19.5272 17.0923 19.6758C13.7365 20.0509 10.2649 20.0509 6.90905 19.6758C5.57894 19.5272 4.51346 18.4775 4.35934 17.1599C3.95834 13.7313 3.95834 10.2678 4.35934 6.83924C4.51346 5.52156 5.57894 4.47195 6.90905 4.32329Z" fill="#F8F663"/>
</svg>
