<svg width="91" height="68" viewBox="0 0 91 68" fill="none" xmlns="http://www.w3.org/2000/svg">
<path fill-rule="evenodd" clip-rule="evenodd" d="M1.8297 37.4228L11.3964 10.6054C11.444 10.4721 11.5007 10.3421 11.566 10.2163C13.1638 7.14206 16.0329 4.78579 19.0935 3.21788C22.1775 1.63792 25.7584 0.699219 29.1342 0.699219C33.9665 0.699219 38.7706 2.61936 42.3779 5.66501C43.5345 6.64149 44.5939 7.75748 45.5 8.99091C46.406 7.75748 47.4655 6.64149 48.622 5.66501C52.2293 2.61937 57.0334 0.699219 61.8657 0.699219C65.2415 0.699219 68.8224 1.63792 71.9064 3.21788C74.967 4.78579 77.8361 7.14205 79.4339 10.2163C79.4993 10.3421 79.5559 10.4721 79.6035 10.6054L89.1702 37.4226C90.1825 39.9159 90.7395 42.639 90.7395 45.4909C90.7396 57.4442 80.9525 67.1343 68.8796 67.1343C57.8786 67.1343 48.7755 59.0885 47.2458 48.6159H43.7541C42.2244 59.0885 33.1214 67.1343 22.1203 67.1343C10.0508 67.1343 0.265939 57.4497 0.260392 45.501M12.5982 26.0031L17.2697 12.9079C18.1169 11.3949 19.7698 9.90848 21.9944 8.76883C24.2778 7.59904 26.8707 6.94922 29.1342 6.94922C32.3362 6.94922 35.715 8.25336 38.282 10.4207C40.8435 12.5834 42.3437 15.3734 42.3437 18.2275V37.2591C39.0721 29.3884 31.2498 23.8473 22.1203 23.8473C18.7071 23.8473 15.4765 24.6218 12.5982 26.0031ZM37.3519 42.3886C37.559 43.3906 37.6678 44.4282 37.6678 45.4909C37.6678 53.9925 30.7069 60.8843 22.1203 60.8843C13.5337 60.8843 6.57288 53.9924 6.57288 45.4908C6.57288 39.1391 10.4583 33.686 16.0042 31.3341C16.1195 31.2852 16.2355 31.2377 16.3522 31.1915C18.1362 30.4855 20.0829 30.0974 22.1203 30.0974C27.4867 30.0974 32.2181 32.7893 35.0121 36.8836C36.1299 38.5217 36.9377 40.3841 37.3519 42.3886ZM48.6562 37.2591C49.4741 35.2915 50.5764 33.4694 51.9125 31.8431C55.9207 26.9642 62.0325 23.8474 68.8796 23.8474C68.9748 23.8474 69.0698 23.848 69.1646 23.8492C71.1971 23.8749 73.1624 24.1752 75.0245 24.7142C76.1938 25.0527 77.3225 25.4852 78.4017 26.0031L73.7302 12.9079C72.883 11.3949 71.2301 9.90848 69.0056 8.76883C66.7221 7.59904 64.1292 6.94922 61.8657 6.94922C58.6637 6.94922 55.285 8.25336 52.7179 10.4207C50.1565 12.5834 48.6562 15.3734 48.6562 18.2275V37.2591ZM53.3322 45.4908C53.3322 45.4908 53.3322 45.4908 53.3322 45.4908C53.3322 53.9924 60.293 60.8843 68.8796 60.8843C77.4631 60.8843 84.422 53.9974 84.4271 45.5001C84.4271 45.497 84.427 45.4939 84.427 45.4909C84.427 45.3629 84.4255 45.2354 84.4224 45.1082C84.4186 44.9547 84.4126 44.8018 84.4043 44.6495C84.0743 38.5836 80.1974 33.4511 74.7908 31.2489C72.9679 30.5066 70.9716 30.0974 68.8796 30.0974C63.513 30.0974 58.7814 32.7895 55.9874 36.8842C54.311 39.341 53.3322 42.3028 53.3322 45.4908Z" fill="black"/>
<path d="M1.8297 37.4228C0.817438 39.9161 0.260376 42.639 0.260376 45.4908C0.260376 45.4908 0.260376 45.4908 0.260376 45.4908" fill="black"/>
</svg>
