<svg width="20" height="20" viewBox="0 0 20 20" fill="none" xmlns="http://www.w3.org/2000/svg">
<path d="M6.37177 13.4995V6.08554H7.72477V13.4995H6.37177Z" fill="#F8F663"/>
<path d="M10.2056 13.4995H8.84161V9.73754C8.84161 9.12154 8.83061 8.60454 8.79761 8.14254H9.98561L10.0516 8.94554H10.0846C10.3156 8.52754 10.8986 8.02154 11.7896 8.02154C12.7246 8.02154 13.6926 8.62654 13.6926 10.3205V13.4995H12.3396V10.4745C12.3396 9.70454 12.0536 9.12154 11.3166 9.12154C10.7776 9.12154 10.4036 9.50654 10.2606 9.91354C10.2166 10.0345 10.2056 10.1995 10.2056 10.3535V13.4995Z" fill="#F8F663"/>
<path fill-rule="evenodd" clip-rule="evenodd" d="M15.2589 0.832573C11.7924 0.445132 8.20902 0.445132 4.74244 0.832573C2.73038 1.05745 1.10605 2.64246 0.869497 4.66499C0.454959 8.20929 0.454959 11.7898 0.869497 15.3341C1.10605 17.3567 2.73038 18.9417 4.74244 19.1665C8.20902 19.554 11.7924 19.554 15.2589 19.1665C17.271 18.9417 18.8953 17.3567 19.1319 15.3341C19.5464 11.7898 19.5464 8.20929 19.1319 4.66499C18.8953 2.64246 17.271 1.05745 15.2589 0.832573ZM4.90905 2.32329C8.2649 1.94823 11.7365 1.94823 15.0923 2.32329C16.4224 2.47195 17.4879 3.52156 17.642 4.83924C18.043 8.26777 18.043 11.7313 17.642 15.1599C17.4879 16.4775 16.4224 17.5272 15.0923 17.6758C11.7365 18.0509 8.2649 18.0509 4.90905 17.6758C3.57894 17.5272 2.51346 16.4775 2.35934 15.1599C1.95834 11.7313 1.95834 8.26777 2.35934 4.83924C2.51346 3.52156 3.57894 2.47195 4.90905 2.32329Z" fill="#F8F663"/>
</svg>
