<svg width="36" height="30" viewBox="0 0 36 30" fill="none" xmlns="http://www.w3.org/2000/svg">
<path fill-rule="evenodd" clip-rule="evenodd" d="M0.5 10.0596C0.5 4.6586 5.23829 0.5 10.8 0.5C13.6669 0.5 16.1897 1.84428 18 3.58367C19.8103 1.84428 22.3331 0.5 25.2 0.5C30.7617 0.5 35.5 4.6586 35.5 10.0596C35.5 13.7593 33.9222 17.0129 31.7364 19.7631C29.5543 22.5085 26.6999 24.8386 23.9669 26.7319C22.9231 27.4551 21.867 28.1222 20.9005 28.6144C19.993 29.0766 18.9495 29.5 18 29.5C17.0505 29.5 16.007 29.0766 15.0995 28.6144C14.133 28.1222 13.0769 27.4551 12.0331 26.7319C9.3001 24.8386 6.44574 22.5085 4.26364 19.7631C2.07776 17.0129 0.5 13.7593 0.5 10.0596ZM3.5 10.0596C-0.658497 10.0596 3.5 6.5582 3.5 10.0596C3.5 12.8666 1.57939 7.72223 3.5 10.1387C0.884362 8.3266 5.42438 12.5599 3.5 10.1387C3.31333 10.1387 4.35639 10.5748 3.5 10.1387C2.64361 10.5748 3.68667 10.1387 3.5 10.1387C3.5 12.9457 5.42061 7.72223 3.5 10.1387C3.5 6.63727 7.65849 10.1387 3.5 10.1387C1.1117 10.1387 4.89246 8.24859 3.5 10.0596C3.96582 10.0596 -0.58967 12.8676 3.5 10.0596C3.78393 10.4289 3.03418 10.0596 3.5 10.0596C5.8883 10.0596 2.10754 8.24859 3.5 10.0596Z" fill="#F6F365"/>
</svg>
